<svg xmlns="http://www.w3.org/2000/svg" viewBox="0 0 200 200" fill="none">
  <!-- Left leg (front view) -->
  <path d="M 78 14
           C 68 38 66 52 68 68
           C 70 78 72 86 71 96
           C 69 108 67 118 66 128
           L 62 158
           L 54 176 L 68 186 L 82 176 L 78 158
           L 76 128
           C 75 118 77 108 79 96
           C 80 86 82 78 84 68
           C 86 52 86 38 82 14"
        stroke="#c6a35c" stroke-width="3.8" stroke-linejoin="round" stroke-linecap="round"/>
  <!-- Left knee -->
  <path d="M 70 66 C 74 74 78 74 82 66" stroke="rgba(198,163,92,0.5)" stroke-width="1.6" stroke-linecap="round"/>

  <!-- Right leg (front view) -->
  <path d="M 122 14
           C 132 38 134 52 132 68
           C 130 78 128 86 129 96
           C 131 108 133 118 134 128
           L 138 158
           L 146 176 L 132 186 L 118 176 L 122 158
           L 124 128
           C 125 118 123 108 121 96
           C 120 86 118 78 116 68
           C 114 52 114 38 118 14"
        stroke="#c6a35c" stroke-width="3.8" stroke-linejoin="round" stroke-linecap="round"/>
  <!-- Right knee -->
  <path d="M 118 66 C 122 74 126 74 130 66" stroke="rgba(198,163,92,0.5)" stroke-width="1.6" stroke-linecap="round"/>

  <!-- Chain wrapped around left ankle -->
  <path d="M 58 122
           C 62 136 74 140 82 136
           C 86 132 86 124 82 120
           C 74 116 62 118 58 122 Z"
        stroke="#c6a35c" stroke-width="3.4" stroke-linejoin="round"/>
  <path d="M 60 124 C 68 132 78 132 84 124" stroke="rgba(198,163,92,0.45)" stroke-width="1.5" stroke-linecap="round"/>

  <!-- Chain wrapped around right ankle -->
  <path d="M 142 122
           C 138 136 126 140 118 136
           C 114 132 114 124 118 120
           C 126 116 138 118 142 122 Z"
        stroke="#c6a35c" stroke-width="3.4" stroke-linejoin="round"/>
  <path d="M 140 124 C 132 132 122 132 116 124" stroke="rgba(198,163,92,0.45)" stroke-width="1.5" stroke-linecap="round"/>

  <!-- Chain draping between both legs -->
  <path d="M 84 128
           C 92 142 100 148 108 142
           C 112 138 116 132 116 128"
        stroke="#c6a35c" stroke-width="3.6" stroke-linecap="round" stroke-linejoin="round"/>
  <path d="M 86 130 C 100 146 114 130" stroke="rgba(198,163,92,0.45)" stroke-width="1.6" stroke-linecap="round"/>

  <!-- Chain links -->
  <circle cx="70" cy="128" r="3" fill="#c6a35c"/>
  <circle cx="100" cy="146" r="3.4" fill="#c6a35c"/>
  <circle cx="130" cy="128" r="3" fill="#c6a35c"/>
  <circle cx="88" cy="136" r="2.2" fill="rgba(198,163,92,0.65)"/>
  <circle cx="112" cy="136" r="2.2" fill="rgba(198,163,92,0.65)"/>
</svg>
